<svg xmlns="http://www.w3.org/2000/svg" viewBox="0 0 32 32" fill="currentColor"><path d="M25.6 10.4c-0.8-2-2.4-3.6-4.4-4.4C19.6 5.2 17.6 4.8 16 5.2c-1.6 0.4-2.8 1.2-3.6 2.4-0.4 0.8-0.8 1.6-0.8 2.4 0 0.8 0.4 2 1.2 3.2l6.8 8.4c0.4 0.4 0.4 0.8 0 1.2-0.4 0.4-1.2 0.8-2 0.8-1.2 0-2.4-0.4-3.6-1.2-2-1.2-3.6-3.2-4.4-5.6-0.8-2.4-0.8-4.8 0-6.8 0.8-2.4 2.4-4 4.4-5.2 2-1.2 4.4-1.6 6.8-1.2 2.4 0.4 4.4 1.6 6 3.6 1.6 2 2.4 4.4 2.4 6.8 0 2.8-0.8 5.2-2.8 7.2-1.6 1.6-3.6 2.8-6 3.2-0.4 0-0.8-0.4-0.8-0.8 0-0.4 0.4-0.8 0.8-0.8 2-0.4 3.6-1.2 5.2-2.8 1.6-1.6 2.4-3.6 2.4-6 0-2-0.8-4-2-5.6-0.4-0.4-0.8-0.8-1.2-1.2z"/></svg>
